<svg xmlns="http://www.w3.org/2000/svg" viewBox="0 0 800 1400" preserveAspectRatio="xMidYMid slice">
  <defs>
    <filter id="soft" x="-10%" y="-10%" width="120%" height="120%">
      <feGaussianBlur stdDeviation="3"></feGaussianBlur>
    </filter>
    <filter id="wispy" x="-10%" y="-10%" width="120%" height="120%">
      <feGaussianBlur stdDeviation="2"></feGaussianBlur>
    </filter>
  </defs>

  <rect x="0" y="0" width="800" height="1400" fill="#EFEAE0"></rect>

  
  <g fill="#3A3733" opacity="0.42" filter="url(#soft)">
    
    <path d="M 200 380 Q 198 280, 192 200 Q 188 140, 180 80&#xA;             M 192 200 Q 160 180, 130 170&#xA;             M 192 200 Q 220 170, 250 160&#xA;             M 188 140 Q 150 120, 120 110&#xA;             M 188 140 Q 220 110, 250 100&#xA;             M 180 80 Q 150 60, 130 50&#xA;             M 180 80 Q 210 50, 230 40" stroke="#3A3733" stroke-width="2.5" fill="none" opacity="0.6"></path>

    
    
    <circle cx="180" cy="50" r="22"></circle><circle cx="160" cy="45" r="18"></circle><circle cx="200" cy="40" r="20"></circle>
    <circle cx="140" cy="60" r="16"></circle><circle cx="220" cy="55" r="17"></circle><circle cx="120" cy="75" r="20"></circle>
    <circle cx="100" cy="60" r="15"></circle><circle cx="240" cy="65" r="18"></circle><circle cx="170" cy="30" r="14"></circle>
    <circle cx="195" cy="20" r="12"></circle><circle cx="230" cy="35" r="13"></circle>

    
    <circle cx="120" cy="160" r="24"></circle><circle cx="100" cy="155" r="20"></circle><circle cx="140" cy="150" r="18"></circle>
    <circle cx="90" cy="175" r="18"></circle><circle cx="130" cy="180" r="16"></circle><circle cx="75" cy="160" r="15"></circle>
    <circle cx="155" cy="170" r="14"></circle><circle cx="105" cy="190" r="14"></circle>

    
    <circle cx="260" cy="155" r="22"></circle><circle cx="280" cy="150" r="20"></circle><circle cx="245" cy="165" r="18"></circle>
    <circle cx="295" cy="170" r="17"></circle><circle cx="270" cy="180" r="15"></circle><circle cx="310" cy="155" r="14"></circle>
    <circle cx="320" cy="175" r="13"></circle><circle cx="240" cy="180" r="12"></circle>

    
    <circle cx="130" cy="220" r="20"></circle><circle cx="110" cy="225" r="17"></circle><circle cx="145" cy="235" r="15"></circle>
    <circle cx="100" cy="245" r="14"></circle><circle cx="155" cy="220" r="13"></circle>

    
    <circle cx="240" cy="225" r="20"></circle><circle cx="260" cy="240" r="17"></circle><circle cx="225" cy="245" r="15"></circle>
    <circle cx="270" cy="220" r="14"></circle><circle cx="215" cy="220" r="13"></circle>

    
    <circle cx="185" cy="280" r="22"></circle><circle cx="200" cy="295" r="18"></circle><circle cx="170" cy="295" r="17"></circle>
    <circle cx="195" cy="265" r="15"></circle><circle cx="215" cy="285" r="14"></circle><circle cx="160" cy="275" r="13"></circle>
    <circle cx="180" cy="320" r="14"></circle><circle cx="205" cy="320" r="12"></circle>
  </g>

  
  <g fill="#3A3733" opacity="0.38" filter="url(#soft)">
    <path d="M 600 420 Q 605 320, 610 220 Q 612 140, 615 70&#xA;             M 610 220 Q 580 200, 560 195&#xA;             M 610 220 Q 640 195, 665 190&#xA;             M 612 140 Q 580 120, 560 115&#xA;             M 612 140 Q 645 115, 670 110&#xA;             M 615 70 Q 595 45, 580 35&#xA;             M 615 70 Q 640 45, 655 35" stroke="#3A3733" stroke-width="2.2" fill="none" opacity="0.55"></path>

    
    <circle cx="610" cy="50" r="20"></circle><circle cx="595" cy="45" r="16"></circle><circle cx="625" cy="40" r="18"></circle>
    <circle cx="580" cy="60" r="14"></circle><circle cx="640" cy="55" r="15"></circle><circle cx="600" cy="25" r="12"></circle>
    <circle cx="625" cy="20" r="11"></circle><circle cx="650" cy="50" r="12"></circle>

    
    <circle cx="560" cy="115" r="20"></circle><circle cx="540" cy="110" r="17"></circle><circle cx="575" cy="125" r="15"></circle>
    <circle cx="555" cy="135" r="14"></circle><circle cx="530" cy="120" r="13"></circle>

    <circle cx="670" cy="110" r="20"></circle><circle cx="690" cy="105" r="17"></circle><circle cx="655" cy="125" r="15"></circle>
    <circle cx="685" cy="125" r="14"></circle><circle cx="705" cy="115" r="13"></circle>

    
    <circle cx="555" cy="200" r="22"></circle><circle cx="535" cy="195" r="18"></circle><circle cx="570" cy="215" r="16"></circle>
    <circle cx="525" cy="215" r="15"></circle><circle cx="545" cy="225" r="13"></circle>

    <circle cx="670" cy="195" r="22"></circle><circle cx="690" cy="200" r="18"></circle><circle cx="655" cy="215" r="16"></circle>
    <circle cx="700" cy="220" r="15"></circle><circle cx="680" cy="230" r="13"></circle>

    
    <circle cx="585" cy="290" r="20"></circle><circle cx="565" cy="300" r="17"></circle><circle cx="600" cy="305" r="15"></circle>
    <circle cx="575" cy="320" r="13"></circle>

    <circle cx="635" cy="290" r="20"></circle><circle cx="655" cy="305" r="17"></circle><circle cx="625" cy="315" r="15"></circle>
    <circle cx="650" cy="325" r="13"></circle>

    
    <circle cx="608" cy="370" r="22"></circle><circle cx="595" cy="385" r="18"></circle><circle cx="625" cy="385" r="17"></circle>
    <circle cx="615" cy="405" r="14"></circle><circle cx="595" cy="410" r="13"></circle>
  </g>

  
  <g fill="#3A3733" opacity="0.22" filter="url(#soft)">
    <path d="M 720 480 Q 725 380, 730 290 Q 732 220, 735 150&#xA;             M 730 290 Q 705 270, 685 265&#xA;             M 730 290 Q 758 265, 775 260&#xA;             M 732 220 Q 705 200, 690 195&#xA;             M 732 220 Q 760 195, 778 190" stroke="#3A3733" stroke-width="1.8" fill="none" opacity="0.5"></path>

    <circle cx="735" cy="140" r="16"></circle><circle cx="720" cy="135" r="13"></circle><circle cx="748" cy="138" r="14"></circle>
    <circle cx="725" cy="125" r="11"></circle><circle cx="755" cy="155" r="11"></circle>

    <circle cx="685" cy="195" r="14"></circle><circle cx="670" cy="200" r="12"></circle><circle cx="695" cy="210" r="11"></circle>
    <circle cx="775" cy="195" r="14"></circle><circle cx="790" cy="200" r="12"></circle><circle cx="765" cy="210" r="11"></circle>

    <circle cx="685" cy="265" r="16"></circle><circle cx="670" cy="275" r="13"></circle><circle cx="700" cy="280" r="12"></circle>
    <circle cx="775" cy="265" r="16"></circle><circle cx="790" cy="275" r="13"></circle><circle cx="763" cy="280" r="12"></circle>

    <circle cx="732" cy="340" r="16"></circle><circle cx="720" cy="355" r="13"></circle><circle cx="745" cy="355" r="12"></circle>
  </g>

  
  <g stroke="#3A3733" fill="none" stroke-width="1.2" stroke-linecap="round" opacity="0.38" filter="url(#wispy)">
    
    <path d="M 50 1380 Q 55 1200, 62 1000 Q 68 850, 72 720"></path>
    <path d="M 95 1380 Q 100 1200, 108 1020 Q 115 870, 120 750"></path>
    <path d="M 140 1380 Q 142 1220, 148 1050 Q 152 900, 158 800"></path>
    <path d="M 30 1380 Q 28 1240, 30 1080 Q 35 950, 42 850"></path>
    <path d="M 180 1380 Q 178 1230, 182 1080 Q 185 940, 188 830"></path>
    <path d="M 75 1380 Q 80 1230, 88 1060 Q 92 920, 96 800"></path>
    <path d="M 115 1380 Q 120 1230, 128 1080 Q 134 940, 140 820"></path>
    <path d="M 160 1380 Q 165 1230, 172 1080 Q 175 950, 178 850"></path>

    
    <path d="M 62 1000 q -8 -4 -14 -2"></path>
    <path d="M 62 1000 q 8 -4 14 -2"></path>
    <path d="M 108 1020 q -8 -4 -14 -2"></path>
    <path d="M 108 1020 q 8 -4 14 -2"></path>
    <path d="M 148 1050 q -8 -4 -14 -2"></path>
    <path d="M 148 1050 q 8 -4 14 -2"></path>
    <path d="M 30 1080 q -6 -3 -12 -1"></path>
    <path d="M 88 1060 q -6 -3 -12 -1"></path>
    <path d="M 88 1060 q 6 -3 12 -1"></path>
    <path d="M 128 1080 q 8 -4 14 -2"></path>
    <path d="M 172 1080 q -6 -3 -12 -1"></path>

    
    <circle cx="72" cy="720" r="3" fill="#3A3733" stroke="none"></circle>
    <circle cx="78" cy="715" r="2.5" fill="#3A3733" stroke="none"></circle>
    <circle cx="68" cy="710" r="2" fill="#3A3733" stroke="none"></circle>
    <circle cx="120" cy="750" r="3" fill="#3A3733" stroke="none"></circle>
    <circle cx="126" cy="744" r="2.5" fill="#3A3733" stroke="none"></circle>
    <circle cx="115" cy="744" r="2" fill="#3A3733" stroke="none"></circle>
    <circle cx="158" cy="800" r="3" fill="#3A3733" stroke="none"></circle>
    <circle cx="164" cy="794" r="2.5" fill="#3A3733" stroke="none"></circle>
    <circle cx="42" cy="850" r="3" fill="#3A3733" stroke="none"></circle>
    <circle cx="188" cy="830" r="3" fill="#3A3733" stroke="none"></circle>
    <circle cx="96" cy="800" r="2.5" fill="#3A3733" stroke="none"></circle>
    <circle cx="140" cy="820" r="2.5" fill="#3A3733" stroke="none"></circle>
    <circle cx="178" cy="850" r="2.5" fill="#3A3733" stroke="none"></circle>
  </g>

  
  <g stroke="#3A3733" fill="none" stroke-width="1.2" stroke-linecap="round" opacity="0.35" filter="url(#wispy)">
    <path d="M 770 1380 Q 765 1200, 758 1000 Q 752 850, 748 720"></path>
    <path d="M 725 1380 Q 720 1200, 712 1020 Q 705 870, 700 750"></path>
    <path d="M 680 1380 Q 678 1220, 672 1050 Q 668 900, 662 800"></path>
    <path d="M 790 1380 Q 792 1240, 790 1080 Q 785 950, 778 850"></path>
    <path d="M 640 1380 Q 642 1230, 638 1080 Q 635 940, 632 830"></path>
    <path d="M 745 1380 Q 740 1230, 732 1060 Q 728 920, 724 800"></path>
    <path d="M 705 1380 Q 700 1230, 692 1080 Q 686 940, 680 820"></path>
    <path d="M 660 1380 Q 655 1230, 648 1080 Q 645 950, 642 850"></path>

    <path d="M 758 1000 q 8 -4 14 -2"></path>
    <path d="M 758 1000 q -8 -4 -14 -2"></path>
    <path d="M 712 1020 q 8 -4 14 -2"></path>
    <path d="M 712 1020 q -8 -4 -14 -2"></path>
    <path d="M 672 1050 q -8 -4 -14 -2"></path>
    <path d="M 790 1080 q 6 -3 12 -1"></path>
    <path d="M 732 1060 q -6 -3 -12 -1"></path>
    <path d="M 692 1080 q -8 -4 -14 -2"></path>

    <circle cx="748" cy="720" r="3" fill="#3A3733" stroke="none"></circle>
    <circle cx="754" cy="715" r="2.5" fill="#3A3733" stroke="none"></circle>
    <circle cx="742" cy="710" r="2" fill="#3A3733" stroke="none"></circle>
    <circle cx="700" cy="750" r="3" fill="#3A3733" stroke="none"></circle>
    <circle cx="694" cy="744" r="2.5" fill="#3A3733" stroke="none"></circle>
    <circle cx="706" cy="744" r="2" fill="#3A3733" stroke="none"></circle>
    <circle cx="662" cy="800" r="3" fill="#3A3733" stroke="none"></circle>
    <circle cx="656" cy="794" r="2.5" fill="#3A3733" stroke="none"></circle>
    <circle cx="778" cy="850" r="3" fill="#3A3733" stroke="none"></circle>
    <circle cx="632" cy="830" r="3" fill="#3A3733" stroke="none"></circle>
    <circle cx="724" cy="800" r="2.5" fill="#3A3733" stroke="none"></circle>
    <circle cx="680" cy="820" r="2.5" fill="#3A3733" stroke="none"></circle>
    <circle cx="642" cy="850" r="2.5" fill="#3A3733" stroke="none"></circle>
  </g>

  
  <g stroke="#3A3733" fill="none" stroke-width="1" stroke-linecap="round" opacity="0.18" filter="url(#wispy)">
    <path d="M 400 1380 Q 405 1200, 408 1000 Q 410 800, 412 650"></path>
    <path d="M 412 650 q -6 -3 -12 -1"></path>
    <path d="M 412 650 q 6 -3 12 -1"></path>
    <circle cx="412" cy="650" r="2.5" fill="#3A3733" stroke="none"></circle>
    <circle cx="418" cy="644" r="2" fill="#3A3733" stroke="none"></circle>
  </g>
</svg>